<svg width="100" height="91" viewBox="0 0 100 91" fill="none" xmlns="http://www.w3.org/2000/svg">
<path d="M50 85.2174L43.4783 90.8696C14.7826 65.2174 0 51.7391 0 35.2174C0 30 1.73913 25.2174 4.34783 21.3043C4.34783 22.1739 4.34783 23.0435 4.34783 23.913C4.34783 44.3478 21.3043 59.5652 50 85.2174ZM56.9565 67.3913C56.9565 42 56.9565 55.5 57 43C57 34.3043 57 37 57 30C57 23.913 57 24 57 19.1304H52.6087C50 13.0435 43.4783 8.69565 36.9565 8.69565C28.2609 8.69565 21.7391 15.2174 21.7391 23.913C21.7391 36.5217 35.2174 48.6957 56.087 67.3913L56.5217 67.8261M76.087 0C89.5652 0 100 10.4348 100 23.913C100 40 85.2174 53.4783 56.5217 79.5652C27.8261 53.913 13.0435 40.4348 13.0435 23.913C13.0435 10.4348 23.4783 0 36.9565 0C44.3478 0 51.7391 3.47826 56.5217 9.13043C61.3043 3.47826 68.6956 0 76.087 0Z" fill="#FF695B"/>
</svg>
