<svg width="41" height="42" viewBox="0 0 41 42" fill="none" xmlns="http://www.w3.org/2000/svg">
<circle cx="20.5" cy="21" r="20.25" fill="#FF695B" stroke="#F9EFF0" stroke-width="0.5"/>
<path d="M21 9C22.4587 9 23.8576 9.57946 24.8891 10.6109C25.9205 11.6424 26.5 13.0413 26.5 14.5C26.5 15.9587 25.9205 17.3576 24.8891 18.3891C23.8576 19.4205 22.4587 20 21 20C19.5413 20 18.1424 19.4205 17.1109 18.3891C16.0795 17.3576 15.5 15.9587 15.5 14.5C15.5 13.0413 16.0795 11.6424 17.1109 10.6109C18.1424 9.57946 19.5413 9 21 9ZM21 22.75C27.0775 22.75 32 25.2113 32 28.25V31H10V28.25C10 25.2113 14.9225 22.75 21 22.75Z" fill="black"/>
</svg>
