<svg width="477" height="634" viewBox="0 0 477 634" fill="none" xmlns="http://www.w3.org/2000/svg">
<path opacity="0.1" d="M63.8799 61.07H0.959961V200.42H63.8799V61.07Z" fill="#FF695B"/>
<path opacity="0.1" d="M227.98 50.69H186.98V37.95H205.36V0C206.953 0.58 208.54 1.17668 210.12 1.79001V37.95H227.98V50.69Z" fill="#FF695B"/>
<path opacity="0.1" d="M326.76 200.43H125.48C125.48 200.43 125.48 200.43 125.55 200.48L125.46 200.43H88.1201V61.08H98.7001V164.08H147.05V103.08H186.99V54.97H227.99V103.12H267.93V164.12H326.76V200.43Z" fill="#FF695B"/>
<path opacity="0.1" d="M88.1201 204.7V343.04H326.76V204.7H88.1201ZM391.54 505.88L391.87 396.38H326.76V347.38H88.1201V587.88C107.685 588.702 127.28 588.468 146.82 587.18H147.16C156.493 586.593 165.783 585.74 175.03 584.62H175.24C224.571 578.879 272.807 566.008 318.44 546.41" fill="#FF695B"/>
<path opacity="0.1" d="M420.33 347.32H476C475.51 375.41 469.87 403 457.53 428.48C447.26 449.65 432.99 468.16 416.13 484.33V396.33H420.33V347.32Z" fill="#FF695B"/>
<path opacity="0.1" d="M476.03 343.04H420.33V227.43H450.47C466.07 263.88 475.98 303.88 476.03 343.04Z" fill="#FF695B"/>
<path opacity="0.1" d="M63.89 99.81H30.1799V143.5H63.89V99.81Z" fill="#FF695B"/>
<path opacity="0.1" d="M63.89 190.37H30.1799V200.43H63.89V190.37Z" fill="#FF695B"/>
<path opacity="0.1" d="M63.89 204.7H30.1799V234.05H63.89V204.7Z" fill="#FF695B"/>
<path opacity="0.1" d="M63.89 280.93H30.1799V324.62H63.89V280.93Z" fill="#FF695B"/>
<path opacity="0.1" d="M63.89 371.49H30.1799V415.18H63.89V371.49Z" fill="#FF695B"/>
<path opacity="0.1" d="M63.8799 495.58C64.2199 495.58 64.5499 495.58 64.8799 495.64H63.8799V505.79H30.1799V462.05H63.8799V495.58Z" fill="#FF695B"/>
<path opacity="0.1" d="M63.8799 552.59V586.34C52.6133 585.387 41.3799 584.09 30.1799 582.45V552.59H63.8799Z" fill="#FF695B"/>
<path opacity="0.1" d="M175.27 218.11H146.83V246.55H175.27V218.11Z" fill="#FF695B"/>
<path opacity="0.1" d="M283.84 218.11H255.4V246.55H283.84V218.11Z" fill="#FF695B"/>
<path opacity="0.1" d="M175.27 288.26H146.83V316.7H175.27V288.26Z" fill="#FF695B"/>
<path opacity="0.1" d="M283.84 288.26H255.4V316.7H283.84V288.26Z" fill="#FF695B"/>
<path opacity="0.1" d="M175.27 358.4H146.83V386.84H175.27V358.4Z" fill="#FF695B"/>
<path opacity="0.1" d="M283.84 358.4H255.4V386.84H283.84V358.4Z" fill="#FF695B"/>
<path opacity="0.1" d="M175.27 428.55H146.83V456.99H175.27V428.55Z" fill="#FF695B"/>
<path opacity="0.1" d="M283.84 428.55H255.4V456.99H283.84V428.55Z" fill="#FF695B"/>
<path opacity="0.1" d="M175.27 498.7H146.83V527.14H175.27V498.7Z" fill="#FF695B"/>
<path opacity="0.1" d="M283.84 498.7H255.4V527.14H283.84V498.7Z" fill="#FF695B"/>
<path opacity="0.1" d="M146.83 587.18V568.84H175.26V584.57L146.83 587.18Z" fill="#FF695B"/>
<path d="M370.67 338.23C370.67 338.23 354.16 256.09 360.48 245.87C360.48 245.87 360.71 236.37 360.33 224.26C360.33 223.8 360.33 223.34 360.33 222.87C361.442 223.611 362.601 224.279 363.8 224.87C369.623 227.862 376.308 228.725 382.7 227.31L377.7 221.74C376.5 220.41 375.25 218.97 374.99 217.21C374.73 215.45 375.45 213.88 376.07 212.31C380.82 200.31 381.07 185.22 371.92 176.06C364.19 168.36 362.31 158.42 353.92 151.39C347.79 146.24 344.42 138.69 341.24 131.39C338.55 125.22 335.84 119 334.3 112.46C333.1 107.35 332.62 102.06 330.97 97.07C329.32 92.08 326.23 87.23 321.4 85C319.68 84.21 317.77 83.76 316.2 82.71C314.14 81.32 312.9 79.06 311.41 77.08C303.84 67.08 278.49 72.97 266.49 77.03C263.228 78.0524 260.207 79.7262 257.61 81.95L257.72 81.77C257.81 81.62 257.92 81.47 258.02 81.32C256.707 82.3821 255.572 83.6482 254.66 85.07C252.91 87.84 252.18 91.07 250.72 94.07C248.96 97.62 239.17 107.53 243.38 111.52C243.675 111.788 244.013 112.004 244.38 112.16C245.96 112.818 247.701 112.992 249.38 112.66L249.2 113.09C247.762 116.61 247.025 120.377 247.03 124.18C247.03 140.61 260.58 153.93 277.31 153.93C280.455 153.933 283.582 153.451 286.58 152.5C286.65 152.88 286.71 153.26 286.78 153.64C286.78 153.79 286.83 153.94 286.85 154.09L286.32 154.83C286.293 154.784 286.263 154.741 286.23 154.7L270.53 176.64C268.13 178.33 254.31 188.33 253.53 195.83C252.71 204.04 251.89 213.65 251.89 213.65L251.78 215.71C251.094 216.283 250.291 216.701 249.428 216.934C248.565 217.167 247.661 217.21 246.78 217.06C241.88 216.26 241.88 235.06 241.88 235.06C241.88 235.06 238.62 238.06 236.38 235.46C234.14 232.86 228.22 241.67 228.22 241.67L191.12 243.27L190.27 243.32L188.27 237.13C188.055 236.477 187.591 235.935 186.978 235.623C186.366 235.31 185.655 235.252 185 235.46C184.845 235.511 184.695 235.575 184.55 235.65L184.41 235.73L184.15 235.91L184.02 236.03C183.948 236.095 183.882 236.165 183.82 236.24L183.7 236.38L183.64 236.44C183.409 236.759 183.256 237.128 183.194 237.517C183.131 237.906 183.161 238.304 183.28 238.68L185 243.99C177.84 245.43 170.52 249.49 176.49 260.67L146.23 255.08L156.02 263.3L206.56 273.73C205.89 274.93 206.33 276.67 208.42 279.12C217.42 289.69 233.82 292.56 240.42 293.3C242.163 297.199 244.34 300.889 246.91 304.3L246.34 314.83C246.34 314.83 229.63 395.09 226.57 399.16C228.115 397.41 229.529 395.548 230.8 393.59C225.95 410.08 219.17 432.65 217.39 436.03C214.53 441.43 211.88 463.28 215.14 464.68C216.14 465.11 219 464.9 223.08 464.59V466.4L222.9 534.99C222.9 534.99 223.72 577.06 221.47 581.07C219.22 585.08 218.62 593.49 218.62 593.49C218.62 593.49 209.62 610.08 202.49 616.75C202.441 616.802 202.388 616.849 202.33 616.89L202.11 615.33C202.11 615.33 193.54 626.15 174.58 625.54C174.58 625.54 163.17 632.96 180.09 633.36C197.01 633.76 218.62 632.76 218.62 632.76C218.62 632.76 233.71 609.76 246.35 612.76V630.19H250.22V612.48C252.015 611.298 253.551 609.765 254.735 607.972C255.92 606.179 256.727 604.164 257.11 602.05C257.441 599.871 257.199 597.642 256.406 595.585C255.613 593.528 254.298 591.714 252.59 590.32C251.823 589.626 251.207 588.781 250.782 587.838C250.357 586.895 250.132 585.874 250.12 584.84L249.98 584.96C249.98 584.61 249.89 584.25 249.85 583.88C248.74 574.88 247.35 556.31 252.26 542.57C258.99 523.73 261.03 497.49 256.13 481.87C254.549 476.877 253.25 471.799 252.24 466.66C252.12 466.01 252.01 465.39 251.91 464.81C255.259 465.263 258.576 465.931 261.84 466.81C273.19 469.94 298.02 470.52 319.22 470.35C319.27 470.93 319.33 471.54 319.4 472.15C319.778 476.39 320.568 480.583 321.76 484.67C324.42 492.67 325.64 527.94 325.64 527.94C325.64 527.94 329.07 556.94 327.2 568.74C326.2 575.3 325.2 581.89 324.63 588.51V588.64C324.63 588.64 319.01 604.64 314.9 613.33C314.8 613.55 314.69 613.77 314.59 613.98C313.494 614.08 312.416 614.318 311.38 614.69C311.38 614.69 305.87 625.69 300.38 627.51C294.89 629.33 296.71 635.32 309.14 633.12C321.57 630.92 340.34 629.12 340.34 629.12L341.15 617.9L344.97 613.12L343.97 624.31L348.04 623.51L347.5 609.9L353.75 602.08C353.75 602.08 361.3 595.36 350.08 582.14V582.43C349.96 582.24 349.85 582.04 349.72 581.85V581.79C347.86 578.91 346.38 573.54 349.09 564.01C353.99 546.79 356.84 531.16 356.84 531.16C356.84 531.16 367.78 489.29 354.63 469.48H355.21C353.862 466.692 352.91 463.731 352.38 460.68C352.313 460.32 352.253 459.95 352.2 459.57C361.93 459.01 371.48 457.25 379.27 453.45C379.24 453.41 374.55 354.05 370.67 338.23ZM247.14 268.93V269.13L245.14 269.23L247.14 268.93ZM240.28 269.88C239.951 269.953 239.643 270.1 239.38 270.31C238.52 271.527 237.98 272.94 237.81 274.42L234.69 273.72C234.69 273.72 232.5 273.25 229.35 272.72L227.86 271.22C231.96 270.88 236.22 270.38 240.28 269.88Z" fill="url(#paint0_linear_139_11)"/>
<path d="M343.51 610.04L342.32 624.21L346.31 623.41L345.71 608.04L343.51 610.04Z" fill="#FF695B"/>
<path d="M252.48 542.76C247.67 556.46 249.03 574.95 250.11 583.93C250.51 587.25 250.88 589.27 250.88 589.27C250.88 589.27 243.69 605.65 243.09 606.27C242.49 606.89 221.93 619.44 221.93 619.44L207.56 627.83C207.56 627.83 192.98 621.44 199.97 619.24C201.398 618.667 202.685 617.79 203.74 616.67C210.74 610.02 219.53 593.49 219.53 593.49C219.53 593.49 220.13 585.1 222.33 581.11C224.53 577.12 223.73 535.19 223.73 535.19L223.9 466.84V457.93L251.25 458.13C251.422 461.155 251.817 464.163 252.43 467.13C253.412 472.251 254.684 477.313 256.24 482.29C261.06 497.88 259.06 523.99 252.48 542.76Z" fill="#FFB0B1"/>
<path opacity="0.1" d="M250.88 589.27C250.88 589.27 243.69 605.65 243.09 606.27C242.49 606.89 221.93 619.44 221.93 619.44L207.56 627.83C207.56 627.83 192.98 621.44 199.97 619.24C201.398 618.667 202.685 617.79 203.74 616.67L204.36 621.04L209.15 620.84L250.15 583.95C250.51 587.25 250.88 589.27 250.88 589.27Z" fill="#1D1D1D"/>
<path d="M250.38 584.88L209.15 622.02L204.36 622.22L203.36 615.22C203.36 615.22 194.98 626 176.36 625.4C176.36 625.4 165.18 632.79 181.75 633.19C198.32 633.59 219.48 632.59 219.48 632.59C219.48 632.59 234.26 609.59 246.63 612.59V629.96H250.43V612.43C252.197 611.241 253.705 609.706 254.863 607.919C256.021 606.132 256.806 604.128 257.17 602.03C257.499 599.868 257.266 597.658 256.494 595.613C255.722 593.567 254.436 591.755 252.76 590.35C252.012 589.648 251.415 588.801 251.005 587.861C250.596 586.92 250.383 585.906 250.38 584.88Z" fill="#FF695B"/>
<path d="M347.31 564.12C344.65 573.62 346.1 578.97 347.92 581.84V581.9C350.254 585.444 351.878 589.407 352.7 593.57L352.86 594.47L334.1 621.82L323.92 625.82C323.92 625.82 307.55 620.23 310.54 618.63C311.29 618.24 312.46 616.16 313.8 613.29C317.8 604.64 323.32 588.68 323.32 588.68V588.55C323.9 581.96 324.82 575.39 325.84 568.85C327.67 557.08 324.31 528.19 324.31 528.19C324.31 528.19 323.11 493.06 320.51 485.07C319.336 481.008 318.556 476.842 318.18 472.63C317.64 467.63 317.52 463.51 317.52 463.51C317.52 463.51 328.3 448.51 348.06 464.71C349.64 466.002 351.031 467.51 352.19 469.19C365.84 488.61 354.85 531.39 354.85 531.39C354.85 531.39 352.1 546.95 347.31 564.12Z" fill="#FFB0B1"/>
<path opacity="0.1" d="M352.89 594.47L334.13 621.82L323.95 625.82C323.95 625.82 307.58 620.23 310.57 618.63C311.32 618.24 312.49 616.16 313.83 613.29C320.76 613.23 324.35 619.83 324.35 619.83L333.13 618.43C333.13 618.43 344.71 595.67 347.31 594.28C349.91 592.89 347.71 583.89 347.71 583.89V581.6C347.78 581.68 347.84 581.77 347.92 581.85V581.91C350.254 585.454 351.878 589.417 352.7 593.58L352.89 594.47Z" fill="#1D1D1D"/>
<path d="M324.95 620.42C324.95 620.42 319.95 611.24 310.37 614.63C310.37 614.63 304.98 625.63 299.59 627.41C294.2 629.19 296 635.19 308.18 633C320.36 630.81 338.72 629 338.72 629L339.52 617.81L351.9 602.04C351.9 602.04 359.28 595.35 348.3 582.18V584.47C348.3 584.47 350.5 593.47 347.9 594.86C345.3 596.25 333.76 619.02 333.76 619.02L324.95 620.42Z" fill="#FF695B"/>
<path opacity="0.1" d="M251.28 458.11C251.452 461.135 251.847 464.143 252.46 467.11C241.2 465.46 230.75 466.28 223.9 466.82V457.91L251.28 458.11Z" fill="#1D1D1D"/>
<path opacity="0.1" d="M353.3 471.68C353.3 471.68 337.3 472.46 318.22 472.62C317.68 467.62 317.56 463.5 317.56 463.5C317.56 463.5 328.34 448.5 348.1 464.7C349.68 465.992 351.071 467.5 352.23 469.18C352.54 470.033 352.897 470.867 353.3 471.68Z" fill="#1D1D1D"/>
<path d="M353.3 469.88C353.3 469.88 283.22 473.27 261.86 467.28C240.5 461.29 219.33 466.48 216.14 465.09C212.95 463.7 215.54 441.93 218.34 436.54C221.14 431.15 236.5 376.64 236.5 376.64L251.28 299.58L266.85 295.29L267.95 294.98L295.08 287.5L314.96 282.01C314.96 282.01 354.49 436.34 351.1 447.72C349.869 452.078 349.67 456.662 350.52 461.11C351.038 464.147 351.973 467.099 353.3 469.88Z" fill="#F9EFF0"/>
<path d="M199.76 246.88C199.76 246.88 185.76 261.88 196.36 270.24C206.96 278.6 213.93 271.04 213.93 271.04L199.76 246.88Z" fill="#C7DAF5"/>
<path opacity="0.1" d="M199.76 246.88C199.76 246.88 185.76 261.88 196.36 270.24C206.96 278.6 213.93 271.04 213.93 271.04L199.76 246.88Z" fill="#1D1D1D"/>
<path d="M312.87 148.26C312.87 148.26 311.23 149.82 308.76 152.12C305.24 155.41 300.03 160.22 295.41 164.25C289.01 169.82 283.73 173.91 285.62 170.42C287.51 166.93 287.15 160.85 286.21 155.16C286.14 154.78 286.08 154.4 286.01 154.03C285.232 149.851 284.2 145.724 282.92 141.67C282.92 141.67 293.26 128.31 298.98 123.04C301.11 121.04 302.6 120.22 302.69 121.61C302.79 123.48 304.19 127.61 305.93 131.99C305.98 132.13 306.03 132.26 306.09 132.4C307.25 135.4 308.56 138.48 309.71 141.14C311.47 145.22 312.87 148.26 312.87 148.26Z" fill="#FFB0B1"/>
<path opacity="0.1" d="M306.09 132.4C305.118 137.626 302.761 142.496 299.264 146.5C295.766 150.503 291.258 153.494 286.21 155.16C285.415 150.595 284.316 146.088 282.92 141.67C282.92 141.67 302.39 116.52 302.69 121.61C302.76 123.54 304.28 127.82 306.09 132.4Z" fill="#1D1D1D"/>
<path opacity="0.1" d="M284.27 161.88L286.79 158.33C286.79 158.33 288.46 168.51 294.6 164.02C300.74 159.53 301.04 197.81 301.04 197.81L294.45 296.34L246.83 293.49L248.18 245.88L253.57 221.88L266.9 186.99L274.83 175.46L284.27 161.88Z" fill="#1D1D1D"/>
<path d="M301.04 198.42L295.04 287.51L294.41 296.95L267.86 295.36L266.86 295.3L246.86 294.1L248.21 246.48L253.6 222.48L266.93 187.59L274.86 176.06L284.3 162.43L286.82 158.89C286.82 158.89 288.49 169.07 294.63 164.58L294.76 164.49C300.76 160.69 301.04 198.42 301.04 198.42Z" fill="#FF695B"/>
<path d="M254.27 214.14C254.27 214.14 251.88 219.14 247.08 218.33C242.28 217.52 242.29 236.33 242.29 236.33C242.29 236.33 239.1 239.33 236.9 236.73C234.7 234.13 228.9 242.92 228.9 242.92L192.56 244.52C192.56 244.52 208.73 251.91 205.56 274.27C205.56 274.27 260.46 270.87 262.26 265.68C264.06 260.49 254.27 214.14 254.27 214.14Z" fill="white"/>
<path opacity="0.03" d="M254.27 214.14C254.27 214.14 251.88 219.14 247.08 218.33C242.28 217.52 242.29 236.33 242.29 236.33C242.29 236.33 239.1 239.33 236.9 236.73C234.7 234.13 228.9 242.92 228.9 242.92L192.56 244.52C192.56 244.52 208.73 251.91 205.56 274.27C205.56 274.27 260.46 270.87 262.26 265.68C264.06 260.49 254.27 214.14 254.27 214.14Z" fill="#1D1D1D"/>
<path d="M148.66 256.27L158.24 264.45L237.1 281.02L227.32 271.04L148.66 256.27Z" fill="white"/>
<path d="M284.42 165.03C283.11 167.03 279.36 177.27 276.23 186.21C273.62 193.66 271.44 200.21 271.44 200.21C271.44 200.21 266.35 233.35 263.75 239.34C261.15 245.33 262.56 268.69 262.56 268.69L252.87 326.38C252.87 326.38 248.48 356.13 241.7 373.9C235.01 391.39 227.56 399.59 227.33 399.85C230.33 395.79 246.68 315.85 246.68 315.85L252.08 215.03C252.08 215.03 252.87 205.45 253.67 197.26C254.47 189.07 270.67 177.89 270.67 177.89L286.29 155.68C287.86 157.78 286.81 161.44 284.42 165.03Z" fill="white"/>
<path d="M243.69 294.6C243.69 294.6 220.69 293.6 209.55 280.22C198.41 266.84 235.3 274.88 235.3 274.88L244.89 277.08L243.69 294.6Z" fill="#FFB0B1"/>
<path opacity="0.1" d="M351.1 447.73C349.869 452.088 349.67 456.672 350.52 461.12C325.43 462.9 298.59 456.12 298.59 456.12C293.59 460.72 280.42 467.5 280.42 467.5L273.24 378.5C268.65 366.5 266.85 303.63 266.85 303.63C266.85 303.63 267.26 300.34 267.85 295.41C267.85 295.29 267.85 295.16 267.9 295.04C269.69 281.27 273.24 255.42 274.98 251.93C277.38 247.13 267.6 234.36 267.6 234.36L272.05 196.41L272.59 191.83C281.97 187.64 289.16 174.26 289.16 174.26L294.68 164.59C300.68 160.74 300.99 198.47 300.99 198.47L294.99 287.56L314.87 282.07C314.87 282.07 354.49 436.35 351.1 447.73Z" fill="#1D1D1D"/>
<path d="M376.85 453.88C349.5 467.46 299.79 454.88 299.79 454.88C294.79 459.48 281.62 466.26 281.62 466.26L274.43 377.26C269.85 365.26 268.05 302.39 268.05 302.39C268.05 302.39 273.83 255.48 276.23 250.69C276.93 249.29 276.59 247.21 275.76 244.97C271.679 234.308 270.179 222.833 271.38 211.48L273.3 195.17L273.83 190.6C283.22 186.4 290.41 173.02 290.41 173.02L295.41 164.26L304.61 148.12L308.97 140.48L309.71 141.15L315.36 146.27C315.36 146.27 317.76 148.27 321.36 151.27C329.19 157.87 342.72 169.49 349.7 176.6C355.84 182.86 357.78 207.21 358.34 225.54C358.71 237.61 358.49 247.07 358.49 247.07C352.3 257.26 368.49 339.07 368.49 339.07C372.26 354.88 376.85 453.88 376.85 453.88Z" fill="white"/>
<path opacity="0.03" d="M324.35 172.82C324.35 172.82 305.58 208.55 307.76 222.13C309.94 235.71 316.14 251.08 313.15 254.67C312.123 256.03 310.795 257.134 309.27 257.896C307.745 258.657 306.065 259.056 304.36 259.06C301.36 259.26 293.36 264.85 293.36 265.45C293.36 266.05 285.97 266.05 279.36 268.85C272.75 271.65 262.99 273.24 262.99 273.24C262.99 273.24 243.99 272.64 242.22 274.44C240.45 276.24 238.63 287.01 242.42 295.6C246.21 304.19 250.42 310.6 253.6 311.77C256.78 312.94 276.96 306.18 293.33 304.58C309.7 302.98 327.47 290.01 327.47 290.01C327.47 290.01 347.04 283.01 350.47 271.24C353.9 259.47 346.28 194.78 346.28 194.78C346.28 194.78 340.52 164.63 324.35 172.82Z" fill="#1D1D1D"/>
<path opacity="0.03" d="M321.95 169.82C321.95 169.82 303.18 205.56 305.38 219.13C307.58 232.7 313.76 248.08 310.76 251.68C309.736 253.042 308.411 254.147 306.887 254.909C305.363 255.671 303.684 256.068 301.98 256.07C298.98 256.27 290.98 261.86 290.98 262.46C290.98 263.06 283.59 263.06 276.98 265.85C270.37 268.64 260.61 270.24 260.61 270.24C260.61 270.24 241.61 269.64 239.85 271.44C238.09 273.24 236.25 284.02 240.05 292.6C243.85 301.18 248.05 307.6 251.23 308.77C254.41 309.94 274.59 303.18 290.96 301.59C307.33 300 325.1 287.01 325.1 287.01C325.1 287.01 344.66 280.01 348.05 268.25C351.44 256.49 343.86 191.78 343.86 191.78C343.86 191.78 338.12 161.64 321.95 169.82Z" fill="#1D1D1D"/>
<path d="M323.76 171.02C323.76 171.02 304.99 206.76 307.19 220.33C309.39 233.9 315.57 249.28 312.58 252.87C311.556 254.235 310.229 255.343 308.704 256.106C307.178 256.87 305.496 257.268 303.79 257.27C300.79 257.47 292.79 263.06 292.79 263.65C292.79 264.24 285.41 264.25 278.79 267.05C272.17 269.85 262.42 271.44 262.42 271.44C262.42 271.44 243.42 270.84 241.65 272.64C239.88 274.44 238.06 285.22 241.85 293.8C245.64 302.38 249.85 308.8 253.03 309.97C256.21 311.14 276.39 304.38 292.76 302.78C309.13 301.18 326.9 288.21 326.9 288.21C326.9 288.21 346.47 281.21 349.9 269.44C353.33 257.67 345.76 192.98 345.76 192.98C345.76 192.98 339.92 162.88 323.76 171.02Z" fill="white"/>
<path opacity="0.1" d="M323.35 266.88C323.35 266.88 308.35 263.88 313.57 268.88C318.79 273.88 318.76 278.26 325.15 278.06C331.54 277.86 323.35 266.88 323.35 266.88Z" fill="#1D1D1D"/>
<path opacity="0.1" d="M348.7 374.46C348.7 374.46 341.92 379.05 354.89 389.63C367.86 400.21 348.7 374.46 348.7 374.46Z" fill="#1D1D1D"/>
<path opacity="0.1" d="M335.76 412.19C335.76 412.79 333.36 434.19 342.34 439.54C351.32 444.89 335.76 412.19 335.76 412.19Z" fill="#1D1D1D"/>
<path d="M193.18 244.47C185.94 244.72 170.3 246.93 178.41 262.06C185.58 275.45 197.63 266.5 204.41 259.71C202.756 253.379 198.736 247.925 193.18 244.47Z" fill="#FFB0B1"/>
<path opacity="0.1" d="M321.36 151.88C313.68 157.13 307.24 161.56 305.98 162.48C302.54 165.03 295.98 180 291.75 187.64C288.38 193.79 277.43 195.37 273.3 195.76L273.83 191.19C283.22 186.99 290.41 173.61 290.41 173.61L308.97 141.07L315.36 146.88C315.36 146.88 317.76 148.88 321.36 151.88Z" fill="#1D1D1D"/>
<path d="M321.36 151.28C313.68 156.53 307.24 160.96 305.98 161.89C302.54 164.43 295.98 179.4 291.75 187.04C288.38 193.19 277.43 194.77 273.3 195.16L273.83 190.59C283.22 186.39 290.41 173.01 290.41 173.01L308.97 140.47L315.36 146.26C315.36 146.26 317.76 148.24 321.36 151.28Z" fill="#DCE7FF"/>
<path d="M306.58 125.8C306.584 131.803 304.764 137.665 301.36 142.61C297.34 148.456 291.358 152.668 284.498 154.481C277.639 156.294 270.356 155.587 263.973 152.49C257.59 149.393 252.528 144.11 249.706 137.601C246.885 131.091 246.49 123.785 248.594 117.009C250.698 110.233 255.162 104.436 261.174 100.67C267.187 96.9032 274.351 95.4168 281.366 96.4803C288.381 97.5438 294.782 101.087 299.408 106.466C304.034 111.845 306.579 118.705 306.58 125.8Z" fill="#FFB0B1"/>
<path opacity="0.1" d="M358.34 225.55C354.279 223.052 350.972 219.499 348.77 215.27C347.1 211.97 345.99 208.16 343.14 205.82C340.57 203.72 337.14 203.21 333.94 202.27C323.42 199.16 314.6 189.56 314.27 178.6C314.11 173.44 315.72 168.29 314.99 163.18C314.575 160.288 313.425 157.551 311.65 155.23C310.769 154.12 309.803 153.08 308.76 152.12C307.36 150.8 305.89 149.52 304.61 148.12C303.804 147.253 303.099 146.297 302.51 145.27C302.035 144.43 301.649 143.541 301.36 142.62C299.36 136.5 301.18 129.24 298.98 123.05L298.86 122.71C298.03 120.51 296.34 118.31 293.99 118.14C291.64 117.97 289.63 119.92 287.39 120.79C282.7 122.61 277.64 119.51 273.73 116.35C269.82 113.19 265.41 109.58 260.44 110.28C257.15 110.75 254.55 112.99 251.52 114.15C250.836 114.415 250.13 114.619 249.41 114.76C251.974 108.365 256.686 103.063 262.734 99.7642C268.783 96.4655 275.792 95.3764 282.557 96.6839C289.321 97.9914 295.42 101.614 299.804 106.929C304.188 112.244 306.584 118.92 306.58 125.81C306.583 127.891 306.366 129.966 305.93 132C305.98 132.14 306.03 132.27 306.09 132.41C307.25 135.41 308.56 138.49 309.71 141.15L315.36 146.27C315.36 146.27 317.76 148.27 321.36 151.27C329.19 157.87 342.72 169.49 349.7 176.6C355.84 182.88 357.76 207.22 358.34 225.55Z" fill="#1D1D1D"/>
<path d="M251.208 96.0071C252.638 93.0971 253.348 89.8371 255.058 87.0771C257.568 83.0771 261.948 80.5171 266.448 78.9671C278.198 74.9171 303.028 69.0371 310.448 78.9671C311.908 80.9671 313.118 83.1871 315.138 84.5671C316.678 85.6171 318.538 86.0671 320.228 86.8571C324.958 89.0771 327.978 93.9171 329.588 98.8571C331.198 103.797 331.678 109.097 332.858 114.187C334.368 120.717 337.018 126.907 339.658 133.057C342.768 140.317 346.068 147.847 352.068 152.977C360.258 159.977 362.068 169.887 369.668 177.567C378.668 186.687 378.378 201.737 373.738 213.687C373.128 215.257 372.438 216.897 372.678 218.567C372.918 220.237 374.158 221.757 375.328 223.087L380.248 228.637C368.608 231.447 355.438 225.367 350.018 214.697C348.348 211.397 347.238 207.597 344.378 205.247C341.818 203.147 338.378 202.647 335.188 201.707C324.668 198.587 315.848 188.977 315.518 178.017C315.358 172.867 316.968 167.717 316.238 162.617C315.832 159.706 314.677 156.949 312.888 154.617C310.138 151.027 305.988 148.617 303.748 144.617C299.958 137.927 302.838 129.237 300.108 122.057C299.268 119.857 297.588 117.657 295.238 117.487C292.888 117.317 290.878 119.267 288.628 120.137C283.948 121.957 278.888 118.867 274.978 115.697C271.068 112.527 266.658 108.927 261.678 109.637C258.388 110.097 255.798 112.337 252.768 113.507C250.528 114.367 245.988 115.137 244.028 113.247C239.888 109.437 249.478 99.5671 251.208 96.0071Z" fill="#FF695B"/>
<path opacity="0.1" d="M352.76 211.27C351.08 207.97 349.98 204.17 347.12 201.83C344.56 199.73 341.12 199.22 337.92 198.28C327.41 195.17 318.59 185.56 318.25 174.6C318.09 169.45 319.7 164.29 318.98 159.19C318.561 156.297 317.408 153.56 315.63 151.24C312.87 147.65 308.72 145.24 306.49 141.24C302.7 134.56 305.58 125.87 302.84 118.68C302.01 116.49 300.32 114.29 297.98 114.11C295.64 113.93 293.61 115.9 291.37 116.77C286.69 118.59 281.62 115.49 277.72 112.33C273.82 109.17 269.39 105.56 264.42 106.26C261.13 106.73 258.53 108.97 255.51 110.13C253.27 110.99 248.72 111.77 246.76 109.88C242.64 105.88 252.23 96.03 253.95 92.49C255.38 89.57 256.09 86.32 257.81 83.56C257.9 83.41 258 83.26 258.1 83.11C256.813 84.1758 255.703 85.438 254.81 86.85C253.1 89.61 252.39 92.85 250.96 95.78C249.23 99.32 239.64 109.2 243.77 113.17C245.77 115.07 250.27 114.29 252.51 113.43C255.51 112.26 258.13 110.02 261.42 109.56C266.42 108.85 270.82 112.46 274.72 115.62C278.62 118.78 283.72 121.88 288.38 120.06C290.62 119.19 292.58 117.23 294.98 117.41C297.38 117.59 298.98 119.78 299.85 121.98C302.58 129.16 299.7 137.85 303.49 144.54C305.73 148.47 309.88 150.93 312.63 154.54C314.42 156.872 315.574 159.629 315.98 162.54C316.71 167.64 315.1 172.79 315.26 177.94C315.59 188.94 324.41 198.51 334.93 201.63C338.1 202.57 341.56 203.07 344.12 205.17C346.99 207.52 348.12 211.32 349.76 214.62C355.18 225.29 368.35 231.37 379.99 228.56L377.67 225.94C367.58 226.09 357.37 220.35 352.76 211.27Z" fill="#1D1D1D"/>
<path opacity="0.1" d="M283.82 165.63C282.51 167.63 278.76 177.87 275.63 186.81C272.7 185.67 270.04 178.4 270.04 178.4L285.66 156.18C287.26 158.38 286.21 162.03 283.82 165.63Z" fill="#1D1D1D"/>
<path d="M284.42 165.03C283.11 167.03 279.36 177.27 276.23 186.21C273.3 185.08 270.64 177.8 270.64 177.8L286.26 155.59C287.86 157.78 286.81 161.44 284.42 165.03Z" fill="#DCE7FF"/>
<path d="M193.6 267.19L184.94 239.88C184.838 239.56 184.799 239.223 184.827 238.889C184.855 238.554 184.949 238.228 185.103 237.93C185.258 237.632 185.469 237.367 185.726 237.151C185.983 236.935 186.28 236.771 186.6 236.67C187.245 236.469 187.943 236.53 188.542 236.841C189.141 237.152 189.593 237.687 189.8 238.33L198.46 265.61L197.6 271.32L193.6 267.19Z" fill="#BE8B87"/>
<path opacity="0.1" d="M185.76 237.48C186.406 237.276 187.106 237.336 187.708 237.647C188.31 237.958 188.763 238.495 188.97 239.14L197.63 266.42L196.98 270.7L197.61 271.36L198.47 265.65L189.76 238.37C189.553 237.727 189.101 237.192 188.502 236.881C187.902 236.57 187.204 236.509 186.56 236.71C186.018 236.886 185.55 237.238 185.23 237.71C185.4 237.619 185.577 237.542 185.76 237.48Z" fill="white"/>
<path d="M193.6 267.19L198.46 265.65L197.75 270.33L197.6 271.36L196.18 269.88L193.6 267.19Z" fill="#EFC8C4"/>
<path d="M196.18 269.88C196.264 269.773 196.37 269.685 196.49 269.62C196.56 269.576 196.642 269.552 196.725 269.552C196.808 269.552 196.89 269.576 196.96 269.62C197.028 269.702 197.085 269.793 197.13 269.89C197.196 270 197.286 270.094 197.393 270.165C197.501 270.236 197.623 270.282 197.75 270.3L197.6 271.3L196.18 269.88Z" fill="#727A9C"/>
<path d="M184.89 249.58C184.89 249.58 202.26 249.48 198.17 256.87C194.08 264.26 187.69 265.15 187.69 265.15L184.89 249.58Z" fill="#FFB0B1"/>
<defs>
<linearGradient id="paint0_linear_139_11" x1="264.43" y1="633.6" x2="264.43" y2="71.6" gradientUnits="userSpaceOnUse">
<stop stop-color="#808080" stop-opacity="0.25"/>
<stop offset="0.54" stop-color="#808080" stop-opacity="0.12"/>
<stop offset="1" stop-color="#808080" stop-opacity="0.1"/>
</linearGradient>
</defs>
</svg>
